custom-analysis
version=1
nRows=4
nColumns=98
inDegrees=no

This file contains tibia displacement and acting force.

Units are S.I. units (seconds, meters, Newtons, ...)
Angles are in degrees.

endheader
time	APT	SIT	knee_angle	aACL_R_force	pACL_R_force	aPCL_R_force	pPCL_R_force	aMCL_R_force	mMCL_R_force	pMCL_R_force	aLCL_R_force	mLCL_R_force	pLCL_R_force	aPCL_L_force	pPCL_L_force	aMCL_L_force	aLCL_L_force	aACL_R_length	pACL_R_length	aPCL_R_length	pPCL_R_length	aMCL_R_length	mMCL_R_length	pMCL_R_length	aLCL_R_length	mLCL_R_length	pLCL_R_length	aPCL_L_length	pPCL_L_length	aMCL_L_length	aLCL_L_length	aACL_R_strain	pACL_R_strain	aPCL_R_strain	pPCL_R_strain	aMCL_R_strain	mMCL_R_strain	pMCL_R_strain	aLCL_R_strain	mLCL_R_strain	pLCL_R_strain	aPCL_L_strain	pPCL_L_strain	aMCL_L_strain	aLCL_L_strain	femur_lat_meniscii_r.femur_lat_r.force.X	femur_lat_meniscii_r.femur_lat_r.force.Y	femur_lat_meniscii_r.femur_lat_r.force.Z	femur_lat_meniscii_r.femur_lat_r.torque.X	femur_lat_meniscii_r.femur_lat_r.torque.Y	femur_lat_meniscii_r.femur_lat_r.torque.Z	femur_lat_meniscii_r.meniscus_lat_r.force.X	femur_lat_meniscii_r.meniscus_lat_r.force.Y	femur_lat_meniscii_r.meniscus_lat_r.force.Z	femur_lat_meniscii_r.meniscus_lat_r.torque.X	femur_lat_meniscii_r.meniscus_lat_r.torque.Y	femur_lat_meniscii_r.meniscus_lat_r.torque.Z	femur_med_meniscii_r.femur_med_r.force.X	femur_med_meniscii_r.femur_med_r.force.Y	femur_med_meniscii_r.femur_med_r.force.Z	femur_med_meniscii_r.femur_med_r.torque.X	femur_med_meniscii_r.femur_med_r.torque.Y	femur_med_meniscii_r.femur_med_r.torque.Z	femur_med_meniscii_r.meniscus_med_r.force.X	femur_med_meniscii_r.meniscus_med_r.force.Y	femur_med_meniscii_r.meniscus_med_r.force.Z	femur_med_meniscii_r.meniscus_med_r.torque.X	femur_med_meniscii_r.meniscus_med_r.torque.Y	femur_med_meniscii_r.meniscus_med_r.torque.Z	femur_med_tibia_r.tibia_upper_r.force.X	femur_med_tibia_r.tibia_upper_r.force.Y	femur_med_tibia_r.tibia_upper_r.force.Z	femur_med_tibia_r.tibia_upper_r.torque.X	femur_med_tibia_r.tibia_upper_r.torque.Y	femur_med_tibia_r.tibia_upper_r.torque.Z	femur_med_tibia_r.femur_med_r.force.X	femur_med_tibia_r.femur_med_r.force.Y	femur_med_tibia_r.femur_med_r.force.Z	femur_med_tibia_r.femur_med_r.torque.X	femur_med_tibia_r.femur_med_r.torque.Y	femur_med_tibia_r.femur_med_r.torque.Z	femur_lat_tibia_r.tibia_upper_r.force.X	femur_lat_tibia_r.tibia_upper_r.force.Y	femur_lat_tibia_r.tibia_upper_r.force.Z	femur_lat_tibia_r.tibia_upper_r.torque.X	femur_lat_tibia_r.tibia_upper_r.torque.Y	femur_lat_tibia_r.tibia_upper_r.torque.Z	femur_lat_tibia_r.femur_lat_r.force.X	femur_lat_tibia_r.femur_lat_r.force.Y	femur_lat_tibia_r.femur_lat_r.force.Z	femur_lat_tibia_r.femur_lat_r.torque.X	femur_lat_tibia_r.femur_lat_r.torque.Y	femur_lat_tibia_r.femur_lat_r.torque.Z	femur_lat_meniscii_force_r	femur_med_meniscii_force_r	femur_lat_tibia_force_r	femur_med_tibia_force_r
      0.10718859	      0.00820401	      0.00740240	     27.76169402	      9.82057163	    -11.32022169	      0.00000000	     55.49303007	      0.00000000	      0.00000000	    -37.59311946	      0.00000000	      0.00000000	      0.00000000	      0.00000000	      0.00000000	      0.00000001	      0.00000000	      0.03248920	      0.02545065	      0.03092278	      0.03010133	      0.05721210	      0.05953120	      0.05889274	      0.05344847	      0.05040953	      0.04688253	      0.01525851	      0.01651186	      0.06550154	      0.04489616	      0.04785266	      0.01564136	     -0.00554823	      0.00714423	     -0.04689383	     -0.00438682	      0.00280517	     -0.04517423	     -0.10492215	     -0.10431582	      0.00000079	     -0.32847694	      0.00000060	     -0.00000086	     56.66508425	    270.06504574	     42.09576993	    -23.84377376	      1.47264604	     22.34184814	    -56.66508425	   -270.06504574	    -42.09576993	      8.34705607	     -2.01178981	      1.97714406	    -31.24651672	     60.15498623	      6.17301340	     -1.09488517	      0.74360849	    -12.79575922	     31.24651672	    -60.15498623	     -6.17301340	     -1.13226899	     -0.73544825	      1.44284547	    -87.57083364	   -501.24507030	    113.49837620	    -11.87138642	      2.22713765	      0.70528548	     87.57083364	    501.24507030	   -113.49837620	     56.36437390	     -1.30347772	     37.70291153	    -39.90844754	   -150.47056769	    -38.29437674	      5.16215802	     -1.41507576	      0.18116221	     39.90844754	    150.47056769	     38.29437674	    -19.46940045	      0.95028394	     16.55542882	    279.13816390	     68.06668252	    160.31386470	    521.34168528
      0.10821753	      0.00827880	      0.00754103	     28.22694518	      9.15280754	    -11.79477496	      0.00000000	     57.34092595	      0.00000000	      0.00000000	    -37.76586921	      0.00000000	      0.00000000	      0.00000000	      0.00000000	      0.00000000	      0.00000001	      0.00000000	      0.03246958	      0.02541692	      0.03100046	      0.03015478	      0.05725040	      0.05952518	      0.05883939	      0.05344045	      0.05037274	      0.04681706	      0.01525851	      0.01651186	      0.06550154	      0.04489616	      0.04722005	      0.01429516	     -0.00305012	      0.00893268	     -0.04625591	     -0.00448747	      0.00189671	     -0.04531749	     -0.10557551	     -0.10556649	      0.00000079	     -0.32847694	      0.00000060	     -0.00000086	     54.46681709	    271.65614556	     42.62231638	    -24.11437116	      1.41059244	     21.38473406	    -54.46681709	   -271.65614556	    -42.62231638	      8.40773908	     -1.95434065	      2.15229740	    -30.15943190	     61.20732919	      7.05596376	     -1.43923801	      0.71325236	    -12.34037819	     30.15943190	    -61.20732919	     -7.05596376	     -1.12585382	     -0.71861629	      1.42289006	    -93.23357751	   -502.48947545	    112.74364059	    -11.86849057	      2.33485733	      0.60940400	     93.23357751	    502.48947545	   -112.74364059	     56.05381012	     -1.40931888	     40.05478535	    -37.48018429	   -140.72865091	    -35.60772015	      4.80712189	     -1.33380696	      0.21113174	     37.48018429	    140.72865091	     35.60772015	    -18.11512668	      0.89688188	     15.52349961	    280.32188184	     68.59821502	    149.92407123	    523.35389690
      0.10933555	      0.00836269	      0.00769411	     28.73612620	      8.08694303	    -12.55429100	      0.00000000	     60.49035162	      0.00000000	      0.00000000	    -38.17966962	      0.00000000	      0.00000000	      0.00000000	      0.00000000	      0.00000000	      0.00000001	      0.00000000	      0.03244734	      0.02537959	      0.03108442	      0.03021157	      0.05729228	      0.05951827	      0.05878104	      0.05343154	      0.05033207	      0.04674507	      0.01525851	      0.01651186	      0.06550154	      0.04489616	      0.04650277	      0.01280537	     -0.00034985	      0.01083278	     -0.04555813	     -0.00460294	      0.00090320	     -0.04547674	     -0.10629753	     -0.10694201	      0.00000079	     -0.32847694	      0.00000060	     -0.00000086	     53.54999824	    271.95439835	     40.85303645	    -23.37076092	      1.38976608	     20.96438757	    -53.54999824	   -271.95439835	    -40.85303645	      8.32836949	     -1.91850167	      2.27285715	    -29.34168810	     61.48419083	      8.25420742	     -1.92881465	      0.69296838	    -12.01088016	     29.34168810	    -61.48419083	     -8.25420742	     -1.09662250	     -0.71486868	      1.41932286	    -97.82646923	   -504.05446614	    113.21240811	    -11.91553415	      2.43838469	      0.58265946	     97.82646923	    504.05446614	   -113.21240811	     56.26082931	     -1.49383669	     41.94136573	    -35.40682870	   -131.05307424	    -33.21008671	      4.46399745	     -1.26339447	      0.22421418	     35.40682870	    131.05307424	     33.21008671	    -16.88256913	      0.85075836	     14.64414421	    280.17096152	     68.62486665	    139.75500580	    525.79270845
      0.11045357	      0.00845031	      0.00785092	     29.24913666	      7.33202179	    -13.04127787	     25.47029058	     58.81695437	      0.00000000	      0.00000000	      0.00000000	      0.00000000	      0.00000000	      0.00000000	      0.00000000	      0.00000000	      0.00000001	      0.00000000	      0.03242391	      0.02534127	      0.03116634	      0.03026544	      0.05733322	      0.05950974	      0.05872110	      0.05342104	      0.05028936	      0.04667084	      0.01525851	      0.01651186	      0.06550154	      0.04489616	      0.04574711	      0.01127646	      0.00228463	      0.01263533	     -0.04487608	     -0.00474559	     -0.00011754	     -0.04566427	     -0.10705586	     -0.10836016	      0.00000079	     -0.32847694	      0.00000060	     -0.00000086	     58.08655124	    283.05347647	     38.80546175	    -22.77553391	      1.48716265	     22.77927079	    -58.08655124	   -283.05347647	    -38.80546175	      8.52670806	     -2.00911508	      2.35651059	    -28.02666727	     62.87346245	      9.06211656	     -2.22302289	      0.65651560	    -11.46580007	     28.02666727	    -62.87346245	     -9.06211656	     -1.11114366	     -0.69226937	      1.40218938	   -107.48587044	   -511.16839432	    115.06907913	    -12.10101195	      2.62912961	      0.40337682	    107.48587044	    511.16839432	   -115.06907913	     57.14967424	     -1.66071434	     45.97848355	    -35.02364282	   -124.55984685	    -31.06167498	      4.21106128	     -1.23429524	      0.20166859	     35.02364282	    124.55984685	     31.06167498	    -15.82773795	      0.84025808	     14.47685544	    291.54619161	     69.43117683	    133.06629421	    534.87122999
